# xmcd CD database file
#
# Track frame offsets:
#	150
#	11934
#	22411
#	45292
#	57522
#	70596
#	83558
#	95251
#	109308
#	124209
#
# Disc length: 1818 seconds
#
# Revision: 4
# Processed by: cddbd v1.5.2PL0 Copyright (c) Steve Scherf et al.
# Submitted via: CDex 1.51
#
DISCID=8207180a
DTITLE=Amy Bezunartea - Restaurants and Bars
DYEAR=2010
DGENRE=Country
TTITLE0=All The Things We Were Supposed To Be
TTITLE1=Restaurants and Bars
TTITLE2=Come Back To Me
TTITLE3=Mostly I'm Just Scared
TTITLE4=Bridges
TTITLE5=I Lie Awake At Night (But That's All Right)
TTITLE6=Amy's Spring Tune
TTITLE7=Doubles
TTITLE8=The Light
TTITLE9=Rope
EXTD=YEAR: 2010
EXTT0=
EXTT1=
EXTT2=
EXTT3=
EXTT4=
EXTT5=
EXTT6=
EXTT7=
EXTT8=
EXTT9=
PLAYORDER=
